<svg width="36" height="36" viewBox="0 0 36 36" fill="none" xmlns="http://www.w3.org/2000/svg">
<path d="M4.5 10.125C4.5 8.63316 5.09263 7.20242 6.14752 6.14752C7.20242 5.09263 8.63316 4.5 10.125 4.5H25.875C27.3668 4.5 28.7976 5.09263 29.8525 6.14752C30.9074 7.20242 31.5 8.63316 31.5 10.125V25.875C31.5 27.3668 30.9074 28.7976 29.8525 29.8525C28.7976 30.9074 27.3668 31.5 25.875 31.5H10.125C8.63316 31.5 7.20242 30.9074 6.14752 29.8525C5.09263 28.7976 4.5 27.3668 4.5 25.875V10.125ZM10.125 6.75C9.22989 6.75 8.37145 7.10558 7.73851 7.73851C7.10558 8.37145 6.75 9.22989 6.75 10.125V25.875C6.75 26.7701 7.10558 27.6286 7.73851 28.2615C8.37145 28.8944 9.22989 29.25 10.125 29.25H25.875C26.7701 29.25 27.6286 28.8944 28.2615 28.2615C28.8944 27.6286 29.25 26.7701 29.25 25.875V10.125C29.25 9.22989 28.8944 8.37145 28.2615 7.73851C27.6286 7.10558 26.7701 6.75 25.875 6.75H10.125ZM19.125 23.625C19.125 23.3266 19.2435 23.0405 19.4545 22.8295C19.6655 22.6185 19.9516 22.5 20.25 22.5H25.3125C25.6109 22.5 25.897 22.6185 26.108 22.8295C26.319 23.0405 26.4375 23.3266 26.4375 23.625C26.4375 23.9234 26.319 24.2095 26.108 24.4205C25.897 24.6315 25.6109 24.75 25.3125 24.75H20.25C19.9516 24.75 19.6655 24.6315 19.4545 24.4205C19.2435 24.2095 19.125 23.9234 19.125 23.625ZM20.25 13.5C19.9516 13.5 19.6655 13.6185 19.4545 13.8295C19.2435 14.0405 19.125 14.3266 19.125 14.625C19.125 14.9234 19.2435 15.2095 19.4545 15.4205C19.6655 15.6315 19.9516 15.75 20.25 15.75H25.3125C25.6109 15.75 25.897 15.6315 26.108 15.4205C26.319 15.2095 26.4375 14.9234 26.4375 14.625C26.4375 14.3266 26.319 14.0405 26.108 13.8295C25.897 13.6185 25.6109 13.5 25.3125 13.5H20.25ZM16.5465 20.5785C16.6513 20.683 16.7344 20.8071 16.7911 20.9438C16.8478 21.0805 16.877 21.227 16.877 21.375C16.877 21.523 16.8478 21.6695 16.7911 21.8062C16.7344 21.9429 16.6513 22.067 16.5465 22.1715L13.1715 25.5465C13.067 25.6513 12.9429 25.7344 12.8062 25.7911C12.6695 25.8478 12.523 25.877 12.375 25.877C12.227 25.877 12.0805 25.8478 11.9438 25.7911C11.8071 25.7344 11.683 25.6513 11.5785 25.5465L9.8955 23.8635C9.7909 23.7589 9.70793 23.6347 9.65132 23.4981C9.59472 23.3614 9.56558 23.2149 9.56558 23.067C9.56558 22.9191 9.59472 22.7726 9.65132 22.6359C9.70793 22.4993 9.7909 22.3751 9.8955 22.2705C10.1067 22.0593 10.3933 21.9406 10.692 21.9406C10.8399 21.9406 10.9864 21.9697 11.1231 22.0263C11.2597 22.0829 11.3839 22.1659 11.4885 22.2705L12.375 23.1593L14.9535 20.5785C15.058 20.4737 15.1821 20.3906 15.3188 20.3339C15.4555 20.2772 15.602 20.248 15.75 20.248C15.898 20.248 16.0445 20.2772 16.1812 20.3339C16.3179 20.3906 16.442 20.4737 16.5465 20.5785ZM16.5465 13.1715C16.6511 13.0669 16.7341 12.9427 16.7907 12.8061C16.8473 12.6694 16.8764 12.5229 16.8764 12.375C16.8764 12.2271 16.8473 12.0806 16.7907 11.9439C16.7341 11.8073 16.6511 11.6831 16.5465 11.5785C16.4419 11.4739 16.3177 11.3909 16.1811 11.3343C16.0444 11.2777 15.8979 11.2486 15.75 11.2486C15.6021 11.2486 15.4556 11.2777 15.3189 11.3343C15.1823 11.3909 15.0581 11.4739 14.9535 11.5785L12.375 14.1593L11.4885 13.2705C11.2773 13.0593 10.9907 12.9406 10.692 12.9406C10.3933 12.9406 10.1067 13.0593 9.8955 13.2705C9.68426 13.4817 9.56558 13.7683 9.56558 14.067C9.56558 14.3657 9.68425 14.6523 9.8955 14.8635L11.5785 16.5465C11.683 16.6513 11.8071 16.7344 11.9438 16.7911C12.0805 16.8478 12.227 16.877 12.375 16.877C12.523 16.877 12.6695 16.8478 12.8062 16.7911C12.9429 16.7344 13.067 16.6513 13.1715 16.5465L16.5465 13.1715Z" fill="black"/>
</svg>
