<svg width="30" height="32" viewBox="0 0 30 32" fill="none" xmlns="http://www.w3.org/2000/svg">
<path fill-rule="evenodd" clip-rule="evenodd" d="M18.054 0.4389C18.609 0.0398996 19.389 -0.1461 20.1555 0.1344C21.785 0.731648 23.2985 1.60714 24.6285 2.7219C25.254 3.2469 25.4835 4.0134 25.4145 4.6914C25.302 5.8209 25.5 6.9114 26.0445 7.8504C26.5245 8.6859 27.2475 9.3459 28.1295 9.8109L28.467 9.9759C29.088 10.2564 29.64 10.8399 29.7795 11.6454C30.0776 13.3525 30.0776 15.0983 29.7795 16.8054C29.655 17.5314 29.1945 18.0759 28.65 18.3819L28.467 18.4764C27.432 18.9414 26.586 19.6614 26.043 20.6004C25.5 21.5409 25.302 22.6299 25.4145 23.7594C25.482 24.4374 25.254 25.2054 24.6285 25.7289C23.2985 26.8437 21.785 27.7192 20.1555 28.3164C19.8073 28.441 19.4338 28.4784 19.0677 28.4253C18.7016 28.3722 18.3541 28.2303 18.0555 28.0119C17.1315 27.3504 16.086 26.9754 15.0015 26.9754C13.917 26.9754 12.8715 27.3489 11.949 28.0119C11.6503 28.2305 11.3025 28.3726 10.9362 28.4257C10.5698 28.4788 10.196 28.4412 9.84755 28.3164C8.21809 27.7192 6.70463 26.8437 5.37455 25.7289C5.09277 25.4897 4.87383 25.1851 4.73682 24.8418C4.59982 24.4985 4.54891 24.1269 4.58855 23.7594C4.70105 22.6299 4.50155 21.5394 3.95855 20.6004C3.46491 19.7613 2.74142 19.081 1.87355 18.6399L1.53605 18.4749C1.19749 18.3251 0.900821 18.0946 0.672008 17.8035C0.443195 17.5125 0.289214 17.1698 0.223546 16.8054C-0.0745153 15.0983 -0.0745153 13.3525 0.223546 11.6454C0.348046 10.9194 0.808546 10.3749 1.35305 10.0689L1.53605 9.9759C2.57105 9.5094 3.41705 8.7909 3.96005 7.8504C4.50155 6.9114 4.70105 5.8209 4.58855 4.6914C4.54891 4.3239 4.59982 3.95229 4.73682 3.60898C4.87383 3.26568 5.09277 2.96113 5.37455 2.7219C6.70463 1.60714 8.21809 0.731648 9.84755 0.1344C10.1958 0.00981927 10.5693 -0.0275639 10.9354 0.0255165C11.3015 0.078597 11.649 0.220526 11.9475 0.4389C12.87 1.1019 13.9155 1.4754 15.0015 1.4754C16.0875 1.4754 17.1315 1.1019 18.054 0.4389ZM19.4895 3.0924C18.1905 3.9474 16.659 4.4754 15.0015 4.4754C13.344 4.4754 11.8125 3.9459 10.5135 3.0924C9.46938 3.51408 8.48977 4.08064 7.60355 4.7754C7.69355 6.3249 7.38605 7.9149 6.55805 9.3504C5.72855 10.7844 4.50605 11.8449 3.11855 12.5424C2.96069 13.6578 2.96069 14.79 3.11855 15.9054C4.50605 16.6029 5.72855 17.6634 6.55805 19.1004C7.38605 20.5329 7.69355 22.1229 7.60355 23.6724C8.48968 24.3677 9.4693 24.9348 10.5135 25.3569C11.8125 24.5019 13.344 23.9739 15.0015 23.9739C16.659 23.9739 18.1905 24.5034 19.4895 25.3569C20.5337 24.9352 21.5133 24.3687 22.3995 23.6739C22.3095 22.1229 22.617 20.5329 23.445 19.0989C24.273 17.6634 25.497 16.6029 26.8845 15.9039C27.0421 14.7894 27.0421 13.6584 26.8845 12.5439C25.497 11.8449 24.2745 10.7844 23.445 9.3489C22.617 7.9149 22.3095 6.3249 22.3995 4.7739C21.5133 4.07914 20.5337 3.51408 19.4895 3.0924ZM15.0015 8.2254C16.5928 8.2254 18.119 8.85754 19.2442 9.98276C20.3694 11.108 21.0015 12.6341 21.0015 14.2254C21.0015 15.8167 20.3694 17.3428 19.2442 18.468C18.119 19.5933 16.5928 20.2254 15.0015 20.2254C13.4102 20.2254 11.8841 19.5933 10.7589 18.468C9.63369 17.3428 9.00155 15.8167 9.00155 14.2254C9.00155 12.6341 9.63369 11.108 10.7589 9.98276C11.8841 8.85754 13.4102 8.2254 15.0015 8.2254ZM15.0015 11.2254C14.2059 11.2254 13.4428 11.5415 12.8802 12.1041C12.3176 12.6667 12.0015 13.4298 12.0015 14.2254C12.0015 15.021 12.3176 15.7841 12.8802 16.3467C13.4428 16.9093 14.2059 17.2254 15.0015 17.2254C15.7972 17.2254 16.5603 16.9093 17.1229 16.3467C17.6855 15.7841 18.0015 15.021 18.0015 14.2254C18.0015 13.4298 17.6855 12.6667 17.1229 12.1041C16.5603 11.5415 15.7972 11.2254 15.0015 11.2254Z" fill="black"/>
</svg>
