<svg width="42" height="42" viewBox="0 0 42 42" fill="none" xmlns="http://www.w3.org/2000/svg">
<path d="M0 20.625C0 32.0155 9.2345 41.25 20.625 41.25C32.0155 41.25 41.25 32.0155 41.25 20.625C41.25 9.2345 32.0155 0 20.625 0C9.2345 0 0 9.23358 0 20.625Z" fill="#FFFA61"/>
<path fill-rule="evenodd" clip-rule="evenodd" d="M20.625 36.6666C11.7655 36.6666 4.58337 29.4845 4.58337 20.6249C4.58337 11.7653 11.7655 4.58325 20.625 4.58325C29.4846 4.58325 36.6667 11.7653 36.6667 20.6249C36.6667 29.4845 29.4846 36.6666 20.625 36.6666ZM22.2292 10.5003C22.2292 10.0749 22.0602 9.66686 21.7594 9.36602C21.4585 9.06518 21.0505 8.89617 20.625 8.89617C20.1996 8.89617 19.7916 9.06518 19.4907 9.36602C19.1899 9.66686 19.0209 10.0749 19.0209 10.5003V12.0825C18.0398 12.2729 17.1051 12.6524 16.269 13.1999C15.059 14.0066 13.9792 15.3238 13.9792 17.0554C13.9792 17.9693 14.213 18.7925 14.686 19.4947C15.148 20.1822 15.7722 20.6543 16.4038 20.9916C17.5615 21.6085 19.0209 21.8991 20.1896 22.1328L20.3106 22.1576C21.6425 22.4234 22.6426 22.6379 23.3356 23.0083C23.65 23.1751 23.8132 23.3328 23.903 23.4657C23.9819 23.5821 24.0625 23.7673 24.0625 24.1138C24.0625 24.3979 23.882 24.8462 23.2009 25.2999C22.5491 25.7344 21.627 26.0268 20.6837 26.0378C20.6434 26.0365 20.603 26.0365 20.5627 26.0378C19.5441 26.0271 18.5377 25.8142 17.6019 25.4118C17.3164 25.2892 17.039 25.1487 16.7714 24.991L16.5376 24.8407C16.196 24.594 15.771 24.4917 15.3546 24.5558C14.9381 24.6199 14.5636 24.8453 14.312 25.1833C14.0603 25.5213 13.9518 25.9447 14.0097 26.362C14.0677 26.7794 14.2876 27.1572 14.6218 27.4138L14.6227 27.4147L14.6245 27.4165C14.784 27.5348 14.9509 27.6402 15.1205 27.7419C15.4101 27.9161 15.8217 28.1398 16.3378 28.3607C17.04 28.6613 17.9493 28.9638 19.0209 29.1261V30.6661C19.0209 31.0915 19.1899 31.4996 19.4907 31.8004C19.7916 32.1012 20.1996 32.2703 20.625 32.2703C21.0505 32.2703 21.4585 32.1012 21.7594 31.8004C22.0602 31.4996 22.2292 31.0915 22.2292 30.6661V29.0867C23.2104 28.896 24.145 28.5162 24.981 27.9683C26.191 27.1626 27.2709 25.8453 27.2709 24.1138C27.2709 23.1998 27.0371 22.3757 26.565 21.6736C26.1021 20.987 25.4779 20.514 24.8463 20.1776C23.6895 19.5598 22.2301 19.2692 21.0605 19.0354L20.9395 19.0116C19.6075 18.7458 18.6075 18.5303 17.9145 18.1609C17.6 17.9932 17.4369 17.8364 17.347 17.7035C17.2691 17.5862 17.1875 17.401 17.1875 17.0554C17.1875 16.7703 17.3681 16.323 18.0492 15.8693C18.7147 15.4256 19.6625 15.1304 20.625 15.1304C21.8699 15.1304 22.914 15.4421 23.6482 15.7565C24.0149 15.9133 24.2963 16.0682 24.4787 16.1782C24.5575 16.2253 24.6348 16.2749 24.7106 16.3267L24.7125 16.3276C25.0541 16.5726 25.4782 16.6737 25.8936 16.6092C26.309 16.5446 26.6825 16.3196 26.9336 15.9825C27.1848 15.6455 27.2937 15.2232 27.2367 14.8067C27.1798 14.3902 26.9616 14.0127 26.6292 13.7554L26.6274 13.7536L26.6255 13.7518L26.621 13.749C26.4622 13.634 26.2982 13.5263 26.1296 13.4263C25.84 13.2522 25.4293 13.0294 24.9123 12.8076C24.054 12.4399 23.1524 12.183 22.2292 12.0431V10.5003Z" fill="#FB923C"/>
</svg>
