<svg width="36" height="33" viewBox="0 0 36 33" fill="none" xmlns="http://www.w3.org/2000/svg">
<path d="M1 1H7.08333L11.6458 19.8583C11.788 20.5557 12.1703 21.1811 12.7261 21.6258C13.2818 22.0704 13.9759 22.306 14.6875 22.2917H28.375C29.0866 22.306 29.7807 22.0704 30.3364 21.6258C30.8922 21.1811 31.2745 20.5557 31.4167 19.8583L34.4583 7.08333H8.60417" stroke="black" stroke-width="2" stroke-linecap="round" stroke-linejoin="round"/>
<path d="M13.1666 31.4167C14.0065 31.4167 14.6874 30.7358 14.6874 29.8958C14.6874 29.0559 14.0065 28.375 13.1666 28.375C12.3267 28.375 11.6458 29.0559 11.6458 29.8958C11.6458 30.7358 12.3267 31.4167 13.1666 31.4167Z" stroke="black" stroke-width="2" stroke-linecap="round" stroke-linejoin="round"/>
<path d="M29.8958 31.4167C30.7358 31.4167 31.4167 30.7358 31.4167 29.8958C31.4167 29.0559 30.7358 28.375 29.8958 28.375C29.0559 28.375 28.375 29.0559 28.375 29.8958C28.375 30.7358 29.0559 31.4167 29.8958 31.4167Z" stroke="black" stroke-width="2" stroke-linecap="round" stroke-linejoin="round"/>
</svg>
