<svg width="24" height="24" viewBox="0 0 24 24" fill="none" xmlns="http://www.w3.org/2000/svg">
<path fill-rule="evenodd" clip-rule="evenodd" d="M23.5938 10.0542C23.7389 9.96483 23.854 9.83426 23.9246 9.67914C23.9951 9.52403 24.0178 9.35141 23.9898 9.18333L22.8583 2.42904C22.8395 2.31685 22.7986 2.20951 22.7379 2.11331C22.6771 2.0171 22.5979 1.93394 22.5047 1.86868C22.4115 1.80342 22.3063 1.75736 22.1951 1.73319C22.0839 1.70902 21.9691 1.70722 21.8572 1.7279L15.4458 2.91933C15.2816 2.94995 15.1299 3.02789 15.0094 3.14355C14.8889 3.25921 14.8048 3.40756 14.7675 3.57037C14.7301 3.73317 14.7412 3.90334 14.7993 4.05995C14.8573 4.21656 14.9599 4.35279 15.0943 4.4519L17.9263 6.5399L13.0475 13.5085L8.59377 10.385C8.36116 10.2222 8.07343 10.1584 7.79378 10.2076C7.51414 10.2567 7.26545 10.4149 7.10234 10.6473L0.193771 20.5079C0.113064 20.6232 0.0558505 20.7532 0.0253966 20.8906C-0.00505739 21.0279 -0.00815528 21.17 0.0162798 21.3085C0.0407149 21.4471 0.0922044 21.5795 0.167808 21.6982C0.243413 21.8169 0.341651 21.9195 0.456914 22.0002C0.689698 22.1632 0.977697 22.227 1.25756 22.1777C1.39613 22.1532 1.52853 22.1018 1.6472 22.0261C1.76587 21.9505 1.86849 21.8523 1.9492 21.737L8.24063 12.7542L12.6943 15.8776C12.9272 16.0403 13.215 16.1038 13.4947 16.0543C13.7744 16.0048 14.0229 15.8463 14.1858 15.6136L19.6492 7.81361L22.6338 10.0148C22.7714 10.1161 22.9361 10.174 23.1069 10.181C23.2776 10.1881 23.4466 10.1439 23.5921 10.0542" fill="#111827"/>
</svg>
